<?xml version="1.0" standalone="no"?>
<!DOCTYPE svg PUBLIC "-//W3C//DTD SVG 20010904//EN"
 "http://www.w3.org/TR/2001/REC-SVG-20010904/DTD/svg10.dtd">
<svg version="1.0" xmlns="http://www.w3.org/2000/svg"
 width="460.000000pt" height="460.000000pt" viewBox="0 0 460.000000 460.000000"
 preserveAspectRatio="xMidYMid meet">

<g transform="translate(0.000000,460.000000) scale(0.100000,-0.100000)"
fill="#000000" stroke="none">
<path d="M1442 4583 c6 -7 23 -13 39 -13 15 0 31 -4 34 -10 3 -5 14 -10 24
-10 10 0 24 -7 31 -15 18 -22 32 -18 28 7 -2 15 -13 26 -33 32 -16 5 -39 13
-50 17 -11 5 -34 8 -52 7 -24 -2 -29 -6 -21 -15z"/>
<path d="M1627 4575 c-17 -23 -17 -25 2 -47 11 -13 27 -32 35 -43 9 -11 16
-14 16 -7 0 6 9 12 20 12 31 0 88 33 94 55 15 52 11 55 -71 55 -71 -1 -80 -3
-96 -25z"/>
<path d="M3087 4594 c-3 -3 -32 -10 -64 -14 -175 -25 -207 -30 -212 -36 -13
-13 362 23 434 41 l50 13 -101 1 c-55 1 -103 -2 -107 -5z"/>
<path d="M3307 4593 c7 -2 15 -4 18 -3 7 1 42 -42 75 -92 14 -21 28 -38 33
-38 4 0 7 -5 7 -11 0 -19 62 -105 84 -117 89 -47 105 -48 208 -15 26 8 56 12
67 8 28 -9 194 39 265 77 34 18 61 21 186 24 102 3 159 9 183 19 30 12 44 13
81 3 40 -11 47 -10 66 7 16 15 20 30 20 82 l0 63 -652 -1 c-359 0 -647 -3
-641 -6z"/>
<path d="M2592 4521 c-11 -6 -10 -9 5 -13 22 -6 43 0 43 13 0 11 -31 12 -48 0z"/>
<path d="M2222 4497 c-56 -17 -73 -26 -242 -115 -77 -40 -84 -42 -122 -32 -84
23 -159 -5 -248 -92 -72 -70 -110 -134 -130 -216 -7 -30 -18 -56 -25 -58 -7
-3 -16 -25 -20 -50 -4 -29 -13 -48 -26 -54 -22 -12 -25 -36 -6 -44 9 -3 8 -8
-4 -18 -33 -27 -51 -78 -45 -132 8 -79 17 -126 26 -126 4 0 10 -19 13 -42 4
-24 11 -74 16 -113 6 -38 10 -95 11 -125 0 -30 9 -82 20 -115 11 -33 24 -80
29 -105 l9 -45 1 45 c2 75 29 228 44 257 8 16 24 45 35 66 11 21 26 44 32 52
6 8 9 18 6 23 -3 6 1 15 8 21 10 9 15 38 15 105 1 95 14 151 51 214 11 18 20
40 20 48 0 8 5 14 10 14 6 0 10 7 10 16 0 8 5 12 11 9 11 -7 74 19 99 41 9 7
52 15 98 18 46 3 87 8 93 11 5 4 26 1 47 -6 20 -7 42 -12 49 -11 6 1 14 -2 18
-8 5 -8 11 -7 22 1 12 10 16 10 23 -1 6 -10 9 -8 13 6 4 15 5 15 6 3 1 -20 28
-33 36 -18 4 5 15 -1 25 -13 l19 -23 1 25 c0 20 2 22 11 10 8 -11 12 -12 15
-3 4 8 13 9 30 3 14 -6 33 -6 48 0 13 5 27 6 30 3 3 -4 52 -8 108 -9 198 -6
263 -12 313 -27 28 -9 61 -18 75 -21 44 -9 97 -63 130 -132 17 -36 30 -71 29
-77 -1 -7 1 -19 4 -27 3 -8 11 -41 16 -72 6 -36 24 -79 45 -112 74 -116 89
-163 111 -351 l11 -100 12 80 c32 219 42 301 42 359 0 65 20 132 35 119 4 -5
5 -2 0 6 -4 8 -8 51 -7 95 1 45 -3 116 -9 160 -6 43 -12 110 -14 149 -4 56
-12 87 -40 144 -20 40 -47 80 -60 89 -14 9 -22 21 -18 27 4 6 0 8 -11 4 -9 -4
-14 -3 -11 2 3 5 -5 17 -17 25 -12 9 -19 18 -16 21 7 7 -72 89 -100 104 -12 6
-30 11 -42 11 -13 0 -24 9 -30 26 -11 27 -7 27 -208 24 -46 -1 -64 3 -68 14
-9 25 -59 40 -94 28 -18 -7 -41 -8 -57 -2 -69 21 -172 39 -211 38 -24 -1 -69
-11 -100 -21z"/>
<path d="M0 3780 c0 -19 3 -21 12 -12 9 9 9 15 0 24 -9 9 -12 7 -12 -12z"/>
<path d="M141 3726 c-20 -23 17 -52 114 -89 50 -19 101 -38 115 -42 14 -4 41
-16 60 -26 38 -21 70 -25 70 -9 0 15 -42 38 -85 46 -26 5 -54 21 -85 49 -26
25 -60 46 -80 50 -19 4 -47 14 -62 21 -33 17 -33 17 -47 0z"/>
<path d="M602 3503 c3 -17 55 -49 64 -40 10 9 -8 35 -32 46 -33 15 -36 14 -32
-6z"/>
<path d="M2760 3420 c0 -8 -12 -11 -37 -7 -44 5 -142 -10 -160 -25 -7 -6 -10
-14 -7 -19 3 -5 -2 -6 -10 -3 -9 3 -16 1 -16 -6 0 -6 -6 -8 -12 -4 -10 5 -10
4 0 -7 10 -11 8 -17 -10 -31 l-23 -18 35 4 c19 3 37 5 40 6 3 1 19 1 35 1 17
-1 60 5 97 14 69 16 277 20 228 4 -24 -8 -24 -8 5 -7 59 1 75 -2 75 -13 0 -7
-12 -9 -32 -6 l-33 6 34 -15 c19 -9 42 -13 52 -11 12 3 16 0 12 -9 -3 -10 2
-14 18 -13 13 0 18 3 11 6 -6 2 -10 9 -6 14 8 14 -37 48 -63 49 -13 0 -23 5
-23 11 0 5 -4 7 -10 4 -5 -3 -10 -2 -10 4 0 5 -9 12 -19 16 -11 3 -35 16 -54
29 -41 28 -117 44 -117 26z"/>
<path d="M1808 3383 c7 -3 16 -2 19 1 4 3 -2 6 -13 5 -11 0 -14 -3 -6 -6z"/>
<path d="M1877 3378 c-51 -7 -137 -44 -137 -59 0 -5 -7 -9 -15 -9 -24 0 -64
-30 -59 -44 3 -7 -7 -18 -21 -26 -30 -16 -33 -30 -5 -30 11 0 20 5 20 10 0 6
7 10 16 10 8 0 12 5 9 10 -3 6 1 10 10 10 9 0 13 5 10 10 -3 6 2 10 12 10 10
0 28 6 39 14 48 34 248 29 319 -7 24 -12 95 -17 95 -6 0 4 2 14 5 22 4 10 -15
24 -67 47 -79 36 -156 49 -231 38z"/>
<path d="M871 3364 c15 -18 68 -47 157 -85 35 -15 79 -39 97 -53 19 -14 36
-26 39 -26 3 0 34 -13 69 -29 111 -51 184 -52 103 -1 -19 11 -48 36 -65 55
-22 25 -39 35 -60 35 -40 0 -106 26 -155 62 -22 15 -52 28 -66 28 -15 0 -49 7
-76 15 -61 18 -59 18 -43 -1z"/>
<path d="M2660 3241 c-45 -14 -115 -54 -102 -58 7 -3 33 8 59 23 26 15 71 30
102 34 55 7 55 7 11 8 -25 0 -56 -3 -70 -7z"/>
<path d="M2810 3230 c8 -5 22 -10 31 -10 9 0 27 -8 40 -18 34 -27 59 -34 53
-17 -3 8 -30 23 -60 35 -58 21 -89 26 -64 10z"/>
<path d="M2010 3201 l55 -18 -90 1 c-73 0 -99 -4 -139 -22 -61 -28 -70 -22
-19 12 20 14 34 26 30 26 -19 0 -74 -29 -91 -49 -20 -23 -29 -60 -14 -62 20
-3 36 -2 76 5 31 6 42 12 38 22 -6 16 10 19 19 4 7 -11 70 -11 102 1 12 4 23
17 25 28 3 20 4 20 56 -5 52 -25 71 -26 57 -5 -3 6 -15 11 -25 11 -10 0 -21 4
-24 9 -3 4 7 6 22 4 l27 -4 -23 20 c-25 22 -83 42 -117 40 -11 -1 5 -9 35 -18z"/>
<path d="M2666 3199 c-40 -11 -116 -52 -116 -61 0 -8 44 9 75 29 31 21 52 16
58 -15 5 -25 9 -27 61 -30 44 -3 56 0 56 12 0 25 22 30 39 9 18 -22 66 -35 99
-26 20 5 20 6 -8 30 -16 13 -38 26 -49 28 -10 2 -33 11 -50 19 -32 17 -117 20
-165 5z"/>
<path d="M21 3136 c-22 -34 -29 -96 -11 -96 6 0 10 -13 10 -30 0 -45 15 -36
39 21 26 65 26 85 0 99 -12 7 -18 18 -15 26 9 25 -2 15 -23 -20z"/>
<path d="M1402 3080 c-15 -25 -15 -30 1 -30 15 0 48 36 40 44 -12 12 -28 6
-41 -14z"/>
<path d="M3280 3077 c0 -19 21 -37 42 -37 23 0 23 12 0 33 -22 20 -42 22 -42
4z"/>
<path d="M4190 3039 l-35 -19 45 0 c50 0 76 12 66 29 -10 15 -35 12 -76 -10z"/>
<path d="M3860 3008 c-13 -10 -20 -21 -17 -25 10 -9 275 19 292 31 12 8 -19
11 -119 12 -115 0 -136 -2 -156 -18z"/>
<path d="M3495 2969 c-16 -10 -53 -23 -82 -29 -37 -8 -53 -16 -53 -27 0 -13 7
-14 38 -9 20 3 69 11 108 16 38 5 83 14 100 21 l29 11 -40 19 c-49 23 -62 23
-100 -2z"/>
<path d="M2151 2731 c-12 -8 -10 -11 10 -15 81 -17 114 -11 64 12 -31 14 -55
15 -74 3z"/>
<path d="M2453 2729 c-55 -16 -50 -31 9 -27 39 2 53 7 53 18 0 18 -20 21 -62
9z"/>
<path d="M525 2690 c3 -5 -1 -10 -10 -10 -10 0 -15 -7 -13 -17 4 -23 49 -33
67 -16 11 12 10 17 -9 33 -24 21 -45 27 -35 10z"/>
<path d="M877 2664 c-7 -8 -137 -34 -172 -35 l-30 -1 34 -9 c18 -6 30 -13 27
-16 -10 -10 15 -33 35 -33 11 0 28 -9 39 -20 11 -11 32 -22 47 -26 16 -3 51
-16 78 -29 28 -13 91 -33 140 -45 50 -11 112 -32 139 -46 45 -24 60 -26 170
-26 67 0 127 2 135 4 7 1 16 -3 19 -11 3 -9 0 -11 -9 -6 -8 5 -10 4 -6 0 16
-18 37 -13 37 9 0 13 -3 26 -7 30 -4 4 -9 30 -11 58 -2 28 -9 56 -16 62 -23
21 -56 36 -56 26 0 -5 -4 -10 -10 -10 -5 0 -10 8 -10 18 0 12 -3 13 -8 5 -10
-16 -82 4 -82 23 0 6 -10 14 -22 17 -39 9 -95 32 -111 45 -11 9 -47 11 -141 6
-77 -4 -126 -3 -126 2 0 10 -74 17 -83 8z"/>
<path d="M2170 2660 c0 -5 6 -10 14 -10 8 0 18 5 21 10 3 6 -3 10 -14 10 -12
0 -21 -4 -21 -10z"/>
<path d="M2493 2653 c9 -2 23 -2 30 0 6 3 -1 5 -18 5 -16 0 -22 -2 -12 -5z"/>
<path d="M2442 2576 c-13 -31 -8 -46 9 -29 6 6 9 21 7 34 -4 24 -5 23 -16 -5z"/>
<path d="M4060 2584 c-63 -7 -173 -15 -245 -18 -71 -2 -175 -9 -230 -15 -55
-6 -125 -13 -155 -16 -246 -23 -226 -17 -240 -73 -6 -26 -14 -59 -17 -74 -3
-15 -9 -26 -13 -23 -5 3 -6 -4 -3 -15 3 -11 1 -20 -4 -20 -4 0 -9 -18 -9 -41
-1 -22 -6 -50 -12 -62 -34 -68 -54 -142 -23 -84 22 42 103 61 231 55 74 -4
134 -1 183 9 39 7 115 18 167 22 52 5 115 17 140 26 64 24 261 57 355 60 44 1
98 7 120 14 22 7 67 18 101 24 55 11 60 14 54 32 -4 11 -6 23 -4 26 2 4 -13 3
-33 -1 -36 -8 -73 1 -73 19 0 4 -11 21 -25 37 -14 16 -28 44 -31 62 -9 46 -40
72 -83 71 -20 -1 -88 -8 -151 -15z"/>
<path d="M2520 2570 c0 -5 5 -10 11 -10 5 0 7 5 4 10 -3 6 -8 10 -11 10 -2 0
-4 -4 -4 -10z"/>
<path d="M2100 2559 c0 -4 7 -9 15 -13 9 -3 15 0 15 8 0 7 -7 13 -15 13 -8 0
-15 -4 -15 -8z"/>
<path d="M2256 2552 c-3 -5 1 -9 9 -9 8 0 12 4 9 9 -3 4 -7 8 -9 8 -2 0 -6 -4
-9 -8z"/>
<path d="M2375 2548 c11 -6 23 -16 27 -22 5 -7 8 -8 8 0 0 15 -22 34 -39 34
-12 -1 -11 -4 4 -12z"/>
<path d="M1998 2433 c-54 -14 -78 -33 -42 -33 9 0 24 -8 33 -19 15 -17 72 -51
86 -51 3 0 -2 11 -11 24 -17 27 -8 60 18 62 7 0 30 2 51 2 51 3 47 16 -6 20
-23 1 -49 4 -57 6 -8 2 -41 -3 -72 -11z"/>
<path d="M2626 2438 c-9 -5 -27 -9 -39 -8 -12 1 -33 1 -47 0 -24 -2 -24 -2 5
-11 17 -5 42 -7 58 -4 19 3 33 -1 47 -15 11 -11 17 -20 12 -20 -4 0 -13 -9
-20 -20 -10 -17 -10 -20 5 -20 20 0 110 77 101 85 -11 12 -107 21 -122 13z"/>
<path d="M2488 2423 c7 -3 16 -2 19 1 4 3 -2 6 -13 5 -11 0 -14 -3 -6 -6z"/>
<path d="M2520 2375 c0 -8 4 -15 10 -15 5 0 7 7 4 15 -4 8 -8 15 -10 15 -2 0
-4 -7 -4 -15z"/>
<path d="M2150 2344 c0 -8 5 -12 10 -9 6 3 10 10 10 16 0 5 -4 9 -10 9 -5 0
-10 -7 -10 -16z"/>
<path d="M2550 2333 c0 -17 4 -21 18 -17 9 3 23 8 31 10 20 6 -5 33 -30 31
-13 -1 -19 -9 -19 -24z"/>
<path d="M1570 2296 c0 -8 4 -17 9 -20 5 -4 7 3 4 14 -6 23 -13 26 -13 6z"/>
<path d="M1675 2088 c19 -35 38 -71 41 -80 4 -10 13 -18 20 -18 9 0 14 -13 15
-37 0 -21 3 -33 6 -26 7 18 43 -7 43 -29 0 -10 5 -18 10 -18 6 0 10 -15 11
-32 0 -20 3 -27 7 -18 9 20 36 26 29 6 -4 -9 0 -22 8 -30 8 -8 15 -20 15 -26
0 -7 8 -9 19 -5 23 7 61 -14 61 -32 0 -7 5 -13 11 -13 5 0 7 -4 4 -10 -3 -5
-3 -10 2 -11 4 -1 28 -3 52 -5 50 -4 62 -11 41 -24 -16 -10 -15 -12 23 -28 26
-11 27 -11 17 8 -10 20 3 30 14 11 3 -5 15 -11 26 -14 11 -3 17 -1 14 4 -3 5
19 0 48 -11 55 -20 64 -22 136 -22 23 0 42 -4 42 -9 0 -6 9 -5 21 2 17 9 25 8
36 -4 12 -12 22 -13 46 -5 22 8 35 8 48 -1 16 -10 19 -8 19 11 0 17 3 19 9 9
12 -19 66 -5 96 25 16 16 25 19 28 11 3 -7 6 2 6 20 1 17 8 38 16 47 17 17 20
30 5 21 -20 -12 -9 13 16 38 14 14 31 24 38 21 8 -3 18 8 26 25 7 17 16 31 20
31 4 0 19 11 34 25 27 25 39 9 12 -17 -7 -8 -16 -24 -20 -36 -6 -18 -4 -21 10
-15 15 6 14 1 -6 -33 -13 -21 -27 -43 -32 -48 -14 -16 -9 -26 10 -19 31 11 49
33 47 58 -3 18 4 27 26 37 29 13 34 33 8 33 -8 0 -14 13 -15 35 -1 19 1 29 3
22 4 -10 8 -10 19 -1 8 7 14 7 14 1 0 -5 -7 -15 -15 -22 -8 -7 -15 -17 -15
-23 0 -6 7 -1 16 11 13 19 19 21 30 11 17 -14 34 -2 38 25 1 8 11 26 22 39 32
40 45 67 39 86 -4 13 1 20 15 24 20 5 28 27 10 27 -5 0 -10 -5 -10 -11 0 -8
-4 -8 -14 1 -12 9 -15 8 -16 -7 -2 -55 -4 -64 -15 -51 -15 19 -35 21 -35 3 0
-8 -5 -15 -11 -15 -5 0 -7 5 -4 10 3 6 1 10 -4 10 -6 0 -11 -7 -11 -16 0 -12
-7 -15 -24 -12 -18 4 -26 0 -30 -15 -4 -16 -8 -18 -18 -9 -16 13 -44 -1 -34
-17 4 -7 -1 -11 -13 -11 -32 0 -53 56 -24 67 7 3 13 10 13 15 0 6 -7 7 -16 4
-11 -4 -18 1 -21 14 -9 35 -21 21 -13 -15 4 -19 4 -33 0 -30 -5 3 -10 0 -12
-7 -3 -8 -11 -7 -28 5 -30 21 -51 23 -24 2 10 -8 15 -15 10 -15 -5 0 -3 -7 4
-15 11 -13 8 -15 -14 -15 -14 0 -26 -4 -26 -9 0 -4 -10 -8 -22 -7 -11 0 -23
-6 -25 -14 -4 -13 -3 -13 7 0 10 13 11 13 6 -2 -3 -10 -1 -20 4 -23 18 -11 10
-25 -12 -25 -19 0 -20 2 -8 10 13 8 11 11 -7 16 -13 4 -23 10 -23 15 0 5 -7 9
-15 9 -9 0 -12 -6 -9 -15 4 -8 2 -15 -2 -15 -5 0 -15 -4 -22 -9 -10 -6 -9 -15
8 -44 14 -23 18 -37 10 -37 -7 0 -14 9 -17 20 -3 11 -9 17 -14 14 -5 -3 -6 1
-3 9 3 8 1 18 -4 21 -16 10 -22 -36 -6 -51 18 -18 18 -20 0 -20 -8 0 -15 3
-14 6 2 19 -4 24 -12 11 -8 -11 -9 -8 -4 11 3 16 1 30 -6 34 -7 4 -11 1 -9 -6
1 -8 1 -21 0 -29 -1 -13 -2 -13 -11 0 -8 12 -10 11 -10 -5 0 -18 -5 -20 -35
-17 -25 3 -35 0 -35 -9 -1 -11 -3 -11 -13 1 -17 21 -42 19 -42 -4 0 -11 -6
-21 -12 -23 -7 -3 -13 1 -13 7 0 7 -7 10 -16 6 -10 -4 -18 0 -21 13 -5 21 -40
18 -60 -6 -8 -10 -17 -12 -30 -5 -10 5 -24 7 -31 5 -7 -3 -11 1 -10 9 2 7 -2
12 -9 11 -6 -2 -15 6 -18 17 -4 11 -11 20 -16 20 -5 0 -8 3 -7 8 0 4 -6 23
-14 42 -9 19 -18 42 -21 50 -4 11 -7 9 -12 -7 -4 -13 -11 -23 -16 -23 -5 0 -9
-8 -10 -17 0 -12 -2 -13 -6 -5 -3 7 0 18 6 25 5 7 9 26 7 42 -5 43 -5 43 -21
15 l-15 -25 4 28 c3 15 0 27 -5 27 -6 0 -7 5 -3 12 5 8 2 9 -10 5 -10 -4 -20
-7 -22 -7 -3 0 -2 -5 2 -12 5 -7 3 -8 -5 -4 -7 5 -10 14 -7 22 3 8 1 14 -5 14
-5 0 -12 -7 -16 -16 -6 -15 -7 -15 -19 1 -12 16 -14 17 -20 2 -5 -13 -10 -14
-26 -6 -17 9 -18 8 -9 -10 16 -29 13 -41 -9 -38 -24 4 -35 14 -35 34 0 11 -10
17 -32 18 -32 1 -66 33 -105 97 -34 54 -28 27 7 -34z m100 -88 c3 -5 1 -10 -4
-10 -6 0 -11 5 -11 10 0 6 2 10 4 10 3 0 8 -4 11 -10z m199 -19 c3 -5 -3 -11
-14 -14 -22 -6 -37 8 -18 16 20 8 26 8 32 -2z m981 -1 c3 -5 1 -10 -4 -10 -6
0 -11 5 -11 10 0 6 2 10 4 10 3 0 8 -4 11 -10z m53 3 c-10 -2 -18 -11 -18 -19
0 -8 -4 -14 -10 -14 -5 0 -10 4 -10 8 0 14 23 32 40 31 11 -1 11 -2 -2 -6z
m-55 -54 c-9 -9 -12 -7 -10 9 1 14 5 18 11 12 7 -7 6 -14 -1 -21z m-966 -16
c-3 -10 -5 -4 -5 12 0 17 2 24 5 18 2 -7 2 -21 0 -30z m718 8 c-9 -8 -36 -10
-30 -2 2 4 11 8 20 8 8 0 13 -3 10 -6z m259 -16 c-4 -8 -11 -12 -16 -9 -6 4
-5 10 3 15 19 12 19 11 13 -6z m-899 -35 c-5 -16 -9 -19 -15 -10 -11 17 0 54
12 42 6 -6 7 -20 3 -32z m547 -14 c7 4 8 2 4 -5 -10 -15 -26 -4 -25 17 1 15 2
15 6 -1 2 -9 9 -14 15 -11z m-727 -26 c3 -5 1 -10 -4 -10 -6 0 -11 5 -11 10 0
6 2 10 4 10 3 0 8 -4 11 -10z m45 -19 c0 -12 -20 -25 -27 -18 -7 7 6 27 18 27
5 0 9 -4 9 -9z m25 -31 c3 -6 -1 -7 -9 -4 -18 7 -21 14 -7 14 6 0 13 -4 16
-10z m44 -13 c8 -10 7 -14 -2 -14 -8 0 -14 6 -14 14 0 7 1 13 2 13 2 0 8 -6
14 -13z m636 -87 c-3 -5 -14 -10 -23 -9 -14 0 -13 2 3 9 27 11 27 11 20 0z
m-21 -41 c-8 -13 -21 -11 -27 5 -4 10 0 12 14 9 10 -3 16 -9 13 -14z"/>
<path d="M1930 2070 c-9 -6 -10 -10 -3 -10 6 0 15 5 18 10 8 12 4 12 -15 0z"/>
<path d="M2700 2061 c0 -5 7 -11 15 -15 8 -3 15 -1 15 3 0 5 -7 11 -15 15 -8
3 -15 1 -15 -3z"/>
<path d="M2808 2063 c6 -2 18 -2 25 0 6 3 1 5 -13 5 -14 0 -19 -2 -12 -5z"/>
<path d="M1865 2050 c-8 -13 5 -13 25 0 13 8 13 10 -2 10 -9 0 -20 -4 -23 -10z"/>
<path d="M1958 2053 c7 -3 16 -2 19 1 4 3 -2 6 -13 5 -11 0 -14 -3 -6 -6z"/>
<path d="M3432 2039 c1 -13 8 -23 13 -21 15 3 12 35 -3 40 -9 3 -13 -3 -10
-19z"/>
<path d="M2096 1924 c-9 -22 -7 -44 2 -44 5 0 9 14 9 30 0 34 -2 37 -11 14z"/>
<path d="M2925 1870 c-3 -5 -1 -10 4 -10 6 0 11 5 11 10 0 6 -2 10 -4 10 -3 0
-8 -4 -11 -10z"/>
<path d="M2928 1823 c-10 -2 -18 -12 -18 -20 0 -14 3 -14 20 2 17 15 26 28 18
24 -2 -1 -11 -3 -20 -6z"/>
<path d="M3041 1759 c0 -95 11 -134 44 -171 62 -69 92 -115 115 -176 20 -55
22 -75 17 -156 -6 -98 -12 -116 -80 -228 -48 -80 -86 -121 -132 -142 -22 -10
-60 -27 -85 -39 -32 -14 -117 -91 -290 -264 l-245 -243 -65 69 c-112 119 -445
382 -532 420 -49 21 -84 56 -121 121 -15 25 -40 59 -58 75 -77 74 -97 175 -68
350 12 74 25 101 68 144 78 78 81 85 81 187 0 89 -1 94 -21 94 -12 0 -51 -14
-88 -32 -82 -39 -164 -119 -215 -211 -24 -42 -59 -85 -93 -115 -31 -26 -79
-68 -107 -93 -66 -60 -81 -67 -277 -132 -110 -37 -236 -90 -381 -161 -189 -92
-224 -112 -275 -163 -73 -71 -158 -184 -175 -229 -9 -25 -18 -34 -35 -34 l-23
0 0 -315 0 -315 2300 0 2300 0 0 518 c0 284 -4 523 -9 530 -6 9 -14 3 -32 -22
-23 -34 -24 -35 -49 -19 -13 9 -34 25 -45 35 -49 46 -183 98 -395 152 -118 30
-233 61 -255 69 -164 62 -177 69 -326 189 -22 17 -67 69 -101 115 -95 130
-223 233 -310 248 l-38 7 1 -63z m-786 -1419 c-3 -5 -11 -10 -16 -10 -6 0 -7
5 -4 10 3 6 11 10 16 10 6 0 7 -4 4 -10z"/>
<path d="M1836 1722 c-2 -4 -1 -14 5 -22 7 -12 9 -10 9 8 0 23 -5 28 -14 14z"/>
<path d="M2039 1639 c14 -5 28 -6 33 -1 4 4 -7 9 -25 9 -30 2 -31 2 -8 -8z"/>
<path d="M2085 1630 c-3 -5 -1 -10 4 -10 6 0 11 5 11 10 0 6 -2 10 -4 10 -3 0
-8 -4 -11 -10z"/>
<path d="M2629 1614 c-12 -14 -11 -16 5 -13 11 2 21 10 24 17 5 17 -13 15 -29
-4z"/>
<path d="M2265 1610 c-3 -5 -1 -10 4 -10 6 0 11 5 11 10 0 6 -2 10 -4 10 -3 0
-8 -4 -11 -10z"/>
<path d="M2619 1569 c-10 -6 -7 -9 14 -9 29 0 35 5 14 13 -8 3 -20 1 -28 -4z"/>
<path d="M2645 1500 c-3 -5 -1 -10 4 -10 6 0 11 5 11 10 0 6 -2 10 -4 10 -3 0
-8 -4 -11 -10z"/>
<path d="M42 1343 c-5 -10 -12 -69 -15 -132 -3 -63 -11 -119 -16 -124 -6 -6
-11 -39 -11 -73 l0 -62 94 -7 c131 -10 177 7 168 65 -5 35 -14 43 -64 59 -50
16 -55 25 -66 111 -18 137 -63 217 -90 163z"/>
</g>
</svg>
